<svg width="264" height="52" viewBox="0 0 264 52" fill="none" xmlns="http://www.w3.org/2000/svg">
    <g clipPath="url(#clip0_67_9873)">
        <path d="M24.0398 8.19141V0.878906H0.356445V51.1201H24.0398V43.8076C19.1882 43.8076 14.5353 41.9313 11.1049 38.5916C7.67431 35.252 5.74706 30.7225 5.74706 25.9995C5.74706 21.2765 7.67431 16.7469 11.1049 13.4073C14.5353 10.0676 19.1882 8.19141 24.0398 8.19141Z" fill="#2355D3" />
        <path d="M24.04 8.19141V43.8076C28.8916 43.8076 33.5445 41.9313 36.975 38.5916C40.4056 35.252 42.3328 30.7225 42.3328 25.9995C42.3328 21.2765 40.4056 16.7469 36.975 13.4073C33.5445 10.0676 28.8916 8.19141 24.04 8.19141Z" fill="#2355D3" />
    </g>
    <path d="M58.8571 19.4192C61.0064 19.4192 62.6566 19.8005 63.8075 20.5632C64.9584 21.312 65.5339 22.5461 65.5339 24.2656C65.5339 25.9989 64.9515 27.2539 63.7867 28.0304C62.6219 28.7931 60.9579 29.1744 58.7947 29.1744H57.7755V34H54.5307V19.7936C55.2379 19.6549 55.9867 19.5579 56.7771 19.5024C57.5675 19.4469 58.2608 19.4192 58.8571 19.4192ZM59.0651 22.1856C58.8294 22.1856 58.5936 22.1925 58.3579 22.2064C58.136 22.2203 57.9419 22.2341 57.7755 22.248V26.408H58.7947C59.9179 26.408 60.7638 26.2555 61.3323 25.9504C61.9008 25.6453 62.1851 25.0768 62.1851 24.2448C62.1851 23.8427 62.1088 23.5099 61.9563 23.2464C61.8176 22.9829 61.6096 22.7749 61.3323 22.6224C61.0688 22.456 60.743 22.3451 60.3547 22.2896C59.9664 22.2203 59.5366 22.1856 59.0651 22.1856ZM77.6375 28.5088C77.6375 29.3685 77.5127 30.1589 77.2631 30.88C77.0135 31.5872 76.653 32.1973 76.1815 32.7104C75.7101 33.2096 75.1415 33.5979 74.4759 33.8752C73.8242 34.1525 73.0893 34.2912 72.2711 34.2912C71.4669 34.2912 70.7319 34.1525 70.0663 33.8752C69.4146 33.5979 68.853 33.2096 68.3815 32.7104C67.9101 32.1973 67.5426 31.5872 67.2791 30.88C67.0157 30.1589 66.8839 29.3685 66.8839 28.5088C66.8839 27.6491 67.0157 26.8656 67.2791 26.1584C67.5565 25.4512 67.9309 24.848 68.4023 24.3488C68.8877 23.8496 69.4562 23.4613 70.1079 23.184C70.7735 22.9067 71.4946 22.768 72.2711 22.768C73.0615 22.768 73.7826 22.9067 74.4343 23.184C75.0999 23.4613 75.6685 23.8496 76.1399 24.3488C76.6114 24.848 76.9789 25.4512 77.2423 26.1584C77.5058 26.8656 77.6375 27.6491 77.6375 28.5088ZM74.4759 28.5088C74.4759 27.552 74.2818 26.8032 73.8935 26.2624C73.5191 25.7077 72.9783 25.4304 72.2711 25.4304C71.5639 25.4304 71.0162 25.7077 70.6279 26.2624C70.2397 26.8032 70.0455 27.552 70.0455 28.5088C70.0455 29.4656 70.2397 30.2283 70.6279 30.7968C71.0162 31.3515 71.5639 31.6288 72.2711 31.6288C72.9783 31.6288 73.5191 31.3515 73.8935 30.7968C74.2818 30.2283 74.4759 29.4656 74.4759 28.5088ZM87.0479 28.6128C87.0479 27.656 86.833 26.8933 86.4031 26.3248C85.9733 25.7424 85.3354 25.4512 84.4895 25.4512C84.2122 25.4512 83.9557 25.4651 83.7199 25.4928C83.4842 25.5067 83.2901 25.5275 83.1375 25.5552V31.1504C83.3317 31.2752 83.5813 31.3792 83.8863 31.4624C84.2053 31.5456 84.5242 31.5872 84.8431 31.5872C86.313 31.5872 87.0479 30.5957 87.0479 28.6128ZM90.2095 28.5296C90.2095 29.3755 90.1055 30.1451 89.8975 30.8384C89.6895 31.5317 89.3845 32.128 88.9823 32.6272C88.5802 33.1264 88.081 33.5147 87.4847 33.792C86.8885 34.0693 86.2021 34.208 85.4255 34.208C84.9957 34.208 84.5935 34.1664 84.2191 34.0832C83.8447 34 83.4842 33.8821 83.1375 33.7296V37.848H80.0383V23.4336C80.3157 23.3504 80.6346 23.2741 80.9951 23.2048C81.3557 23.1216 81.7301 23.0523 82.1183 22.9968C82.5205 22.9413 82.9226 22.8997 83.3247 22.872C83.7407 22.8304 84.1359 22.8096 84.5103 22.8096C85.4117 22.8096 86.2159 22.9483 86.9231 23.2256C87.6303 23.4891 88.2266 23.8704 88.7119 24.3696C89.1973 24.8549 89.5647 25.4512 89.8143 26.1584C90.0778 26.8656 90.2095 27.656 90.2095 28.5296ZM101.769 31.8368C102.074 31.8368 102.365 31.8299 102.643 31.816C102.92 31.8021 103.142 31.7813 103.308 31.7536V29.4032C103.184 29.3755 102.996 29.3477 102.747 29.32C102.497 29.2923 102.268 29.2784 102.06 29.2784C101.769 29.2784 101.492 29.2992 101.228 29.3408C100.979 29.3685 100.757 29.4309 100.563 29.528C100.369 29.6251 100.216 29.7568 100.105 29.9232C99.9942 30.0896 99.9387 30.2976 99.9387 30.5472C99.9387 31.0325 100.098 31.3723 100.417 31.5664C100.75 31.7467 101.201 31.8368 101.769 31.8368ZM101.52 22.768C102.435 22.768 103.197 22.872 103.808 23.08C104.418 23.288 104.903 23.5861 105.264 23.9744C105.638 24.3627 105.901 24.8341 106.054 25.3888C106.206 25.9435 106.283 26.5605 106.283 27.24V33.688C105.839 33.7851 105.222 33.896 104.432 34.0208C103.641 34.1595 102.684 34.2288 101.561 34.2288C100.854 34.2288 100.209 34.1664 99.6267 34.0416C99.0582 33.9168 98.5659 33.7157 98.1499 33.4384C97.7339 33.1472 97.415 32.7728 97.1931 32.3152C96.9713 31.8576 96.8603 31.296 96.8603 30.6304C96.8603 29.9925 96.9851 29.4517 97.2347 29.008C97.4982 28.5643 97.8449 28.2107 98.2747 27.9472C98.7046 27.6837 99.1969 27.4965 99.7515 27.3856C100.306 27.2608 100.882 27.1984 101.478 27.1984C101.88 27.1984 102.234 27.2192 102.539 27.2608C102.858 27.2885 103.114 27.3301 103.308 27.3856V27.0944C103.308 26.5675 103.149 26.1445 102.83 25.8256C102.511 25.5067 101.956 25.3472 101.166 25.3472C100.639 25.3472 100.119 25.3888 99.6059 25.472C99.0929 25.5413 98.6491 25.6453 98.2747 25.784L97.8795 23.288C98.0598 23.2325 98.2817 23.1771 98.5451 23.1216C98.8225 23.0523 99.1206 22.9968 99.4395 22.9552C99.7585 22.8997 100.091 22.8581 100.438 22.8304C100.798 22.7888 101.159 22.768 101.52 22.768ZM109.085 23.4336C109.612 23.2811 110.292 23.1424 111.124 23.0176C111.956 22.8789 112.829 22.8096 113.744 22.8096C114.673 22.8096 115.443 22.9344 116.053 23.184C116.677 23.4197 117.169 23.7595 117.53 24.2032C117.891 24.6469 118.147 25.1739 118.3 25.784C118.452 26.3941 118.528 27.0736 118.528 27.8224V34H115.429V28.1968C115.429 27.1984 115.297 26.4912 115.034 26.0752C114.771 25.6592 114.278 25.4512 113.557 25.4512C113.335 25.4512 113.1 25.4651 112.85 25.4928C112.6 25.5067 112.379 25.5275 112.184 25.5552V34H109.085V23.4336ZM123.975 28.4464C123.975 29.4032 124.19 30.1728 124.62 30.7552C125.05 31.3376 125.688 31.6288 126.534 31.6288C126.811 31.6288 127.067 31.6219 127.303 31.608C127.539 31.5803 127.733 31.5525 127.886 31.5248V25.888C127.691 25.7632 127.435 25.6592 127.116 25.576C126.811 25.4928 126.499 25.4512 126.18 25.4512C124.71 25.4512 123.975 26.4496 123.975 28.4464ZM130.985 33.6464C130.707 33.7296 130.389 33.8128 130.028 33.896C129.667 33.9653 129.286 34.0277 128.884 34.0832C128.496 34.1387 128.094 34.1803 127.678 34.208C127.275 34.2496 126.887 34.2704 126.513 34.2704C125.611 34.2704 124.807 34.1387 124.1 33.8752C123.393 33.6117 122.797 33.2373 122.311 32.752C121.826 32.2528 121.451 31.6565 121.188 30.9632C120.938 30.256 120.814 29.4656 120.814 28.592C120.814 27.7045 120.925 26.9072 121.146 26.2C121.368 25.4789 121.687 24.8688 122.103 24.3696C122.519 23.8704 123.025 23.4891 123.622 23.2256C124.232 22.9621 124.925 22.8304 125.702 22.8304C126.131 22.8304 126.513 22.872 126.846 22.9552C127.192 23.0384 127.539 23.1563 127.886 23.3088V18.3584L130.985 17.8592V33.6464ZM145.664 34.2912C143.321 34.2912 141.532 33.6395 140.298 32.336C139.078 31.0325 138.468 29.1813 138.468 26.7824C138.468 25.5899 138.655 24.5291 139.029 23.6C139.404 22.6571 139.917 21.8667 140.568 21.2288C141.22 20.5771 141.997 20.0848 142.898 19.752C143.799 19.4192 144.777 19.2528 145.831 19.2528C146.441 19.2528 146.996 19.3013 147.495 19.3984C147.994 19.4816 148.431 19.5856 148.805 19.7104C149.18 19.8213 149.492 19.9392 149.741 20.064C149.991 20.1888 150.171 20.2859 150.282 20.3552L149.346 22.976C148.902 22.7403 148.382 22.5392 147.786 22.3728C147.204 22.2064 146.538 22.1232 145.789 22.1232C145.29 22.1232 144.798 22.2064 144.312 22.3728C143.841 22.5392 143.418 22.8096 143.044 23.184C142.683 23.5445 142.392 24.016 142.17 24.5984C141.948 25.1808 141.837 25.888 141.837 26.72C141.837 27.3856 141.907 28.0096 142.045 28.592C142.198 29.1605 142.434 29.6528 142.752 30.0688C143.085 30.4848 143.515 30.8176 144.042 31.0672C144.569 31.3029 145.207 31.4208 145.956 31.4208C146.427 31.4208 146.85 31.3931 147.224 31.3376C147.599 31.2821 147.932 31.2197 148.223 31.1504C148.514 31.0672 148.771 30.9771 148.992 30.88C149.214 30.7829 149.415 30.6928 149.596 30.6096L150.49 33.2096C150.032 33.4869 149.388 33.7365 148.556 33.9584C147.724 34.1803 146.76 34.2912 145.664 34.2912ZM162.361 28.5088C162.361 29.3685 162.236 30.1589 161.987 30.88C161.737 31.5872 161.376 32.1973 160.905 32.7104C160.434 33.2096 159.865 33.5979 159.199 33.8752C158.548 34.1525 157.813 34.2912 156.995 34.2912C156.19 34.2912 155.455 34.1525 154.79 33.8752C154.138 33.5979 153.576 33.2096 153.105 32.7104C152.634 32.1973 152.266 31.5872 152.003 30.88C151.739 30.1589 151.607 29.3685 151.607 28.5088C151.607 27.6491 151.739 26.8656 152.003 26.1584C152.28 25.4512 152.654 24.848 153.126 24.3488C153.611 23.8496 154.18 23.4613 154.831 23.184C155.497 22.9067 156.218 22.768 156.995 22.768C157.785 22.768 158.506 22.9067 159.158 23.184C159.823 23.4613 160.392 23.8496 160.863 24.3488C161.335 24.848 161.702 25.4512 161.966 26.1584C162.229 26.8656 162.361 27.6491 162.361 28.5088ZM159.199 28.5088C159.199 27.552 159.005 26.8032 158.617 26.2624C158.243 25.7077 157.702 25.4304 156.995 25.4304C156.287 25.4304 155.74 25.7077 155.351 26.2624C154.963 26.8032 154.769 27.552 154.769 28.5088C154.769 29.4656 154.963 30.2283 155.351 30.7968C155.74 31.3515 156.287 31.6288 156.995 31.6288C157.702 31.6288 158.243 31.3515 158.617 30.7968C159.005 30.2283 159.199 29.4656 159.199 28.5088ZM164.762 23.4336C165.289 23.2811 165.968 23.1424 166.8 23.0176C167.632 22.8789 168.506 22.8096 169.421 22.8096C170.35 22.8096 171.12 22.9344 171.73 23.184C172.354 23.4197 172.846 23.7595 173.207 24.2032C173.567 24.6469 173.824 25.1739 173.976 25.784C174.129 26.3941 174.205 27.0736 174.205 27.8224V34H171.106V28.1968C171.106 27.1984 170.974 26.4912 170.711 26.0752C170.447 25.6592 169.955 25.4512 169.234 25.4512C169.012 25.4512 168.776 25.4651 168.527 25.4928C168.277 25.5067 168.055 25.5275 167.861 25.5552V34H164.762V23.4336ZM179.66 34C178.952 32.6133 178.231 30.9909 177.496 29.1328C176.775 27.2747 176.089 25.2501 175.437 23.0592H178.724C178.862 23.6 179.022 24.1893 179.202 24.8272C179.396 25.4512 179.59 26.0891 179.784 26.7408C179.992 27.3787 180.193 28.0027 180.388 28.6128C180.596 29.2229 180.797 29.7776 180.991 30.2768C181.171 29.7776 181.365 29.2229 181.573 28.6128C181.781 28.0027 181.982 27.3787 182.176 26.7408C182.384 26.0891 182.579 25.4512 182.759 24.8272C182.953 24.1893 183.119 23.6 183.258 23.0592H186.461C185.809 25.2501 185.116 27.2747 184.381 29.1328C183.66 30.9909 182.946 32.6133 182.239 34H179.66ZM187.317 28.6128C187.317 27.6421 187.462 26.7963 187.754 26.0752C188.059 25.3403 188.454 24.7301 188.939 24.2448C189.424 23.7595 189.979 23.392 190.603 23.1424C191.241 22.8928 191.893 22.768 192.558 22.768C194.111 22.768 195.339 23.2464 196.24 24.2032C197.141 25.1461 197.592 26.5397 197.592 28.384C197.592 28.5643 197.585 28.7653 197.571 28.9872C197.557 29.1952 197.543 29.3824 197.53 29.5488H190.499C190.568 30.1867 190.867 30.6928 191.394 31.0672C191.92 31.4416 192.628 31.6288 193.515 31.6288C194.084 31.6288 194.638 31.5803 195.179 31.4832C195.734 31.3723 196.184 31.2405 196.531 31.088L196.947 33.6048C196.781 33.688 196.559 33.7712 196.282 33.8544C196.004 33.9376 195.692 34.0069 195.346 34.0624C195.013 34.1317 194.652 34.1872 194.264 34.2288C193.876 34.2704 193.487 34.2912 193.099 34.2912C192.115 34.2912 191.255 34.1456 190.52 33.8544C189.799 33.5632 189.196 33.168 188.71 32.6688C188.239 32.1557 187.885 31.5525 187.65 30.8592C187.428 30.1659 187.317 29.4171 187.317 28.6128ZM194.597 27.4272C194.583 27.1637 194.534 26.9072 194.451 26.6576C194.382 26.408 194.264 26.1861 194.098 25.992C193.945 25.7979 193.744 25.6384 193.494 25.5136C193.259 25.3888 192.96 25.3264 192.6 25.3264C192.253 25.3264 191.955 25.3888 191.706 25.5136C191.456 25.6245 191.248 25.7771 191.082 25.9712C190.915 26.1653 190.783 26.3941 190.686 26.6576C190.603 26.9072 190.541 27.1637 190.499 27.4272H194.597ZM206.577 25.8048C206.3 25.7355 205.974 25.6661 205.6 25.5968C205.225 25.5136 204.823 25.472 204.393 25.472C204.199 25.472 203.963 25.4928 203.686 25.5344C203.423 25.5621 203.222 25.5968 203.083 25.6384V34H199.984V23.6416C200.538 23.4475 201.19 23.2672 201.939 23.1008C202.702 22.9205 203.547 22.8304 204.476 22.8304C204.643 22.8304 204.844 22.8443 205.08 22.872C205.315 22.8859 205.551 22.9136 205.787 22.9552C206.023 22.9829 206.258 23.0245 206.494 23.08C206.73 23.1216 206.931 23.1771 207.097 23.2464L206.577 25.8048ZM208.655 20.3344L211.754 19.8352V23.0592H215.477V25.6384H211.754V29.4864C211.754 30.1381 211.865 30.6581 212.087 31.0464C212.322 31.4347 212.787 31.6288 213.48 31.6288C213.813 31.6288 214.153 31.6011 214.499 31.5456C214.86 31.4763 215.186 31.3861 215.477 31.2752L215.914 33.688C215.539 33.8405 215.123 33.9723 214.666 34.0832C214.208 34.1941 213.647 34.2496 212.981 34.2496C212.135 34.2496 211.435 34.1387 210.88 33.9168C210.326 33.6811 209.882 33.3621 209.549 32.96C209.216 32.544 208.98 32.0448 208.842 31.4624C208.717 30.88 208.655 30.2352 208.655 29.528V20.3344Z" fill="#111827" />
    <path d="M227.532 19.4192C229.681 19.4192 231.332 19.8005 232.482 20.5632C233.633 21.312 234.209 22.5461 234.209 24.2656C234.209 25.9989 233.626 27.2539 232.462 28.0304C231.297 28.7931 229.633 29.1744 227.47 29.1744H226.45V34H223.206V19.7936C223.913 19.6549 224.662 19.5579 225.452 19.5024C226.242 19.4469 226.936 19.4192 227.532 19.4192ZM227.74 22.1856C227.504 22.1856 227.269 22.1925 227.033 22.2064C226.811 22.2203 226.617 22.2341 226.45 22.248V26.408H227.47C228.593 26.408 229.439 26.2555 230.007 25.9504C230.576 25.6453 230.86 25.0768 230.86 24.2448C230.86 23.8427 230.784 23.5099 230.631 23.2464C230.493 22.9829 230.285 22.7749 230.007 22.6224C229.744 22.456 229.418 22.3451 229.03 22.2896C228.641 22.2203 228.212 22.1856 227.74 22.1856ZM240.814 19.4192C242.977 19.4192 244.634 19.8075 245.785 20.584C246.936 21.3467 247.512 22.5392 247.512 24.1616C247.512 25.1739 247.276 25.9989 246.804 26.6368C246.347 27.2608 245.681 27.7531 244.808 28.1136C245.099 28.4741 245.404 28.8901 245.723 29.3616C246.042 29.8192 246.354 30.3045 246.659 30.8176C246.978 31.3168 247.283 31.8437 247.574 32.3984C247.865 32.9392 248.136 33.4731 248.385 34H244.745C244.482 33.5285 244.211 33.0501 243.934 32.5648C243.671 32.0795 243.393 31.608 243.102 31.1504C242.825 30.6928 242.547 30.2629 242.27 29.8608C241.993 29.4448 241.715 29.0704 241.438 28.7376H239.836V34H236.592V19.7936C237.299 19.6549 238.027 19.5579 238.776 19.5024C239.538 19.4469 240.218 19.4192 240.814 19.4192ZM241.001 22.1856C240.765 22.1856 240.551 22.1925 240.356 22.2064C240.176 22.2203 240.003 22.2341 239.836 22.248V26.1584H240.752C241.972 26.1584 242.845 26.0059 243.372 25.7008C243.899 25.3957 244.163 24.8757 244.163 24.1408C244.163 23.4336 243.892 22.9344 243.352 22.6432C242.825 22.3381 242.041 22.1856 241.001 22.1856ZM252.824 26.7824C252.824 27.4896 252.907 28.1275 253.074 28.696C253.254 29.2645 253.504 29.7568 253.823 30.1728C254.155 30.5749 254.558 30.8869 255.029 31.1088C255.501 31.3307 256.041 31.4416 256.651 31.4416C257.248 31.4416 257.782 31.3307 258.253 31.1088C258.738 30.8869 259.141 30.5749 259.459 30.1728C259.792 29.7568 260.042 29.2645 260.208 28.696C260.389 28.1275 260.479 27.4896 260.479 26.7824C260.479 26.0752 260.389 25.4373 260.208 24.8688C260.042 24.2864 259.792 23.7941 259.459 23.392C259.141 22.976 258.738 22.6571 258.253 22.4352C257.782 22.2133 257.248 22.1024 256.651 22.1024C256.041 22.1024 255.501 22.2203 255.029 22.456C254.558 22.6779 254.155 22.9968 253.823 23.4128C253.504 23.8149 253.254 24.3072 253.074 24.8896C252.907 25.4581 252.824 26.0891 252.824 26.7824ZM263.827 26.7824C263.827 28.0165 263.64 29.1051 263.266 30.048C262.905 30.9771 262.406 31.7605 261.768 32.3984C261.13 33.0224 260.368 33.4939 259.48 33.8128C258.607 34.1317 257.664 34.2912 256.651 34.2912C255.667 34.2912 254.738 34.1317 253.864 33.8128C252.991 33.4939 252.228 33.0224 251.576 32.3984C250.925 31.7605 250.411 30.9771 250.037 30.048C249.663 29.1051 249.475 28.0165 249.475 26.7824C249.475 25.5483 249.67 24.4667 250.058 23.5376C250.446 22.5947 250.966 21.8043 251.618 21.1664C252.283 20.5285 253.046 20.0501 253.906 19.7312C254.779 19.4123 255.695 19.2528 256.651 19.2528C257.636 19.2528 258.565 19.4123 259.439 19.7312C260.312 20.0501 261.075 20.5285 261.727 21.1664C262.378 21.8043 262.891 22.5947 263.266 23.5376C263.64 24.4667 263.827 25.5483 263.827 26.7824Z" fill="#2F65D5" />
    <defs>
        <clipPath id="clip0_67_9873">
            <rect width="42.4667" height="52" fill="white" />
        </clipPath>
    </defs>
</svg>
